<?xml version="1.0" encoding="utf-8"?>
<!-- Generator: Adobe Illustrator 16.0.0, SVG Export Plug-In . SVG Version: 6.00 Build 0)  -->
<!DOCTYPE svg PUBLIC "-//W3C//DTD SVG 1.1//EN" "http://www.w3.org/Graphics/SVG/1.1/DTD/svg11.dtd">
<svg version="1.1" xmlns="http://www.w3.org/2000/svg" xmlns:xlink="http://www.w3.org/1999/xlink" x="0px" y="0px" width="250px"
	 height="250px" viewBox="0 0 250 250" enable-background="new 0 0 250 250" xml:space="preserve">
<g id="Layer_2">
</g>
<g id="Layer_1">
	<g>
		<circle cx="176.959" cy="72.94" r="11.692"/>
		<path d="M124.95,74.917c-27.633,0-50.033,22.4-50.033,50.032c0,27.632,22.4,50.033,50.033,50.033
			c27.631,0,50.033-22.4,50.033-50.033C174.982,97.318,152.581,74.917,124.95,74.917z M124.95,157.428
			c-17.937,0-32.477-14.541-32.477-32.478c0-17.937,14.541-32.477,32.477-32.477c17.937,0,32.478,14.541,32.478,32.477
			C157.428,142.887,142.887,157.428,124.95,157.428z"/>
		<path d="M238,0H12C5.373,0,0,5.373,0,12v226c0,6.627,5.373,12,12,12h226c6.627,0,12-5.373,12-12V12C250,5.373,244.627,0,238,0z
			 M236.549,225.535c0,6.084-4.932,11.015-11.014,11.015H23.464c-6.083,0-11.014-4.931-11.014-11.015V23.464
			c0-6.083,4.931-11.014,11.014-11.014h202.071c6.084,0,11.015,4.931,11.014,11.014V225.535z"/>
		<path d="M217.267,61.128c-2.489-6.407-5.821-11.84-11.238-17.257c-5.417-5.416-10.851-8.748-17.257-11.238
			c-6.197-2.409-13.28-4.055-23.651-4.529c-10.392-0.474-13.71-0.586-40.17-0.586c-26.462,0-29.779,0.112-40.171,0.586
			c-10.371,0.474-17.453,2.121-23.651,4.529c-6.407,2.49-11.839,5.822-17.257,11.238c-5.417,5.417-8.749,10.85-11.238,17.257
			c-2.409,6.198-4.055,13.28-4.529,23.651c-0.474,10.392-0.585,13.709-0.585,40.17c0,26.462,0.111,29.779,0.585,40.171
			c0.474,10.37,2.12,17.451,4.529,23.65c2.489,6.406,5.821,11.84,11.238,17.258c5.417,5.416,10.85,8.748,17.257,11.237
			c6.197,2.409,13.28,4.056,23.651,4.528c10.392,0.476,13.709,0.586,40.171,0.586c26.46,0,29.779-0.11,40.17-0.586
			c10.371-0.473,17.452-2.119,23.651-4.528c6.406-2.489,11.84-5.819,17.257-11.237s8.747-10.851,11.238-17.258
			c2.409-6.197,4.056-13.28,4.528-23.65c0.476-10.393,0.586-13.711,0.586-40.171s-0.111-29.779-0.586-40.17
			C221.322,74.408,219.676,67.326,217.267,61.128z M204.26,164.32c-0.434,9.5-2.022,14.66-3.355,18.092
			c-1.768,4.549-3.879,7.794-7.287,11.204c-3.41,3.408-6.655,5.521-11.205,7.288c-3.432,1.334-8.592,2.922-18.091,3.355
			c-10.271,0.469-13.354,0.568-39.371,0.568c-26.018,0-29.1-0.1-39.372-0.568c-9.5-0.436-14.659-2.022-18.092-3.355
			c-4.547-1.768-7.794-3.88-11.204-7.288c-3.409-3.41-5.522-6.655-7.289-11.204c-1.333-3.434-2.921-8.592-3.355-18.091
			c-0.468-10.273-0.568-13.356-0.568-39.372c0-26.016,0.1-29.097,0.567-39.371c0.434-9.5,2.021-14.659,3.355-18.092
			c1.767-4.547,3.879-7.793,7.288-11.202c3.409-3.41,6.656-5.523,11.204-7.29c3.432-1.333,8.591-2.922,18.091-3.355
			c10.274-0.469,13.356-0.568,39.372-0.568c26.015,0,29.097,0.099,39.371,0.568c9.5,0.434,14.66,2.021,18.092,3.355
			c4.549,1.768,7.794,3.879,11.204,7.29c3.408,3.408,5.521,6.654,7.288,11.202c1.332,3.433,2.92,8.593,3.355,18.092
			c0.471,10.274,0.568,13.356,0.568,39.371S204.729,154.048,204.26,164.32z"/>
	</g>
</g>
</svg>
