<?xml version="1.0" encoding="utf-8"?>
<!-- Generator: Adobe Illustrator 16.0.0, SVG Export Plug-In . SVG Version: 6.00 Build 0)  -->
<!DOCTYPE svg PUBLIC "-//W3C//DTD SVG 1.1//EN" "http://www.w3.org/Graphics/SVG/1.1/DTD/svg11.dtd">
<svg version="1.1" id="Layer_1" xmlns="http://www.w3.org/2000/svg" xmlns:xlink="http://www.w3.org/1999/xlink" x="0px" y="0px"
	 width="250px" height="250px" viewBox="0 0 250 250" enable-background="new 0 0 250 250" xml:space="preserve">
<g>
	<path d="M49.37,27.768c-14.035,0-23.214,9.201-23.214,21.308c0,11.841,8.914,21.319,22.671,21.319h0.272
		c14.308,0,23.204-9.478,23.204-21.321C72.034,36.968,63.407,27.768,49.37,27.768z"/>
	<rect x="28.203" y="87.123" width="41.381" height="123.262"/>
	<path d="M170.11,84.343c-21.785,0-30.971,11.991-37.134,20.385V87.123H92.284c0.553,11.446,0,123.262,0,123.262h40.692v-68.673
		c0-3.69,0.353-7.36,1.434-9.997c2.967-7.377,9.783-15.003,21.117-15.003c14.843,0,20.591,11.314,20.591,27.895v65.778h41.38
		v-70.514C217.498,101.976,197.1,84.343,170.11,84.343z"/>
	<path d="M237.363-0.69H11.139C4.606-0.69-0.69,4.605-0.69,11.139v226.225c0,6.532,5.296,11.828,11.829,11.828h226.225
		c6.532,0,11.828-5.296,11.828-11.828V11.139C249.191,4.605,243.896-0.69,237.363-0.69z M233.346,226.023
		c0,5.952-4.824,10.774-10.773,10.774H24.891c-5.951,0-10.775-4.822-10.775-10.775V28.343c0-5.951,4.824-10.775,10.775-10.775
		h197.681c5.951,0,10.773,4.824,10.773,10.775V226.023z"/>
</g>
</svg>
