<?xml version="1.0" encoding="utf-8"?>
<!-- Generator: Adobe Illustrator 16.0.0, SVG Export Plug-In . SVG Version: 6.00 Build 0)  -->
<!DOCTYPE svg PUBLIC "-//W3C//DTD SVG 1.1//EN" "http://www.w3.org/Graphics/SVG/1.1/DTD/svg11.dtd">
<svg version="1.1" id="Layer_1" xmlns="http://www.w3.org/2000/svg" xmlns:xlink="http://www.w3.org/1999/xlink" x="0px" y="0px"
	 width="250px" height="250px" viewBox="0 0 250 250" enable-background="new 0 0 250 250" xml:space="preserve">
<g>
	<path d="M218.856,46.706c-0.727,0.416-1.196,0.678-1.659,0.949c-7.316,4.293-15.096,7.392-23.393,9.204
		c-0.998,0.218-1.633,0.063-2.369-0.665c-7.318-7.245-16.131-11.093-26.427-11.653c-25.187-1.368-45.457,19.754-42.985,44.849
		c0.141,1.423,0.337,2.84,0.546,4.589c-33.488-2.582-60.655-16.923-82.105-42.566c-5.454,9.014-7.131,18.609-5.369,28.789
		c1.768,10.203,7.064,18.394,14.915,25.072c-5.623-0.501-10.74-2.333-15.729-4.894c0.217,20.323,10.18,33.702,29.042,40.904
		c-5.127,0.993-10.164,0.627-15.551-0.176c6.236,17.481,18.286,27.185,36.559,29.593c-17.994,13.211-37.942,17.604-60.064,14.892
		c0.462,0.385,0.583,0.505,0.724,0.601c8.376,5.537,17.274,10.025,26.804,13.223c18.788,6.311,37.999,7.514,57.453,4.244
		c21.401-3.6,40.62-12.064,56.413-27.242c25.51-24.521,38.698-54.368,38.078-89.992c-0.017-0.889,0.297-1.385,0.963-1.887
		c7.58-5.719,14.006-12.533,19.317-20.401c0.252-0.374,0.476-0.766,0.714-1.15c-6.939,2.724-13.832,5.072-21.174,6.054
		C211.132,63.369,216.223,56.052,218.856,46.706z"/>
	<path d="M237.54,0.608H11.459c-6.528,0-11.821,5.272-11.821,11.777v225.23c0,6.504,5.292,11.776,11.821,11.776H237.54
		c6.528,0,11.821-5.272,11.821-11.776V12.385C249.361,5.881,244.068,0.608,237.54,0.608z M236.55,225.535
		c0,6.084-4.931,11.015-11.015,11.015H23.464c-6.083,0-11.014-4.931-11.014-11.015V23.464c0-6.083,4.931-11.014,11.014-11.014
		h202.071c6.084,0,11.015,4.931,11.015,11.014V225.535z"/>
</g>
</svg>
