<?xml version="1.0" encoding="utf-8"?>
<!-- Generator: Adobe Illustrator 16.0.0, SVG Export Plug-In . SVG Version: 6.00 Build 0)  -->
<!DOCTYPE svg PUBLIC "-//W3C//DTD SVG 1.1//EN" "http://www.w3.org/Graphics/SVG/1.1/DTD/svg11.dtd">
<svg version="1.1" id="Layer_1" xmlns="http://www.w3.org/2000/svg" xmlns:xlink="http://www.w3.org/1999/xlink" x="0px" y="0px"
	 width="1000px" height="50px" viewBox="0 0 1000 50" enable-background="new 0 0 1000 50" xml:space="preserve">
<path d="M999.975,25.252c-0.009-0.061,0.119-25,0-25H551.424c-4.271,0-7.786,3.055-10.136,4.87L510,49.186
	c18.424,1.066,31.424,1.066,40.37-4.078c27.561-15.846,29.554-20.303,78.054-20.29L999.975,25.252z"/>
<path d="M0.025,25c0.009-0.061-0.119-25,0-25l435.052,0.252c4.271,0,7.786,3.055,10.136,4.87l31.288,44.064
	c-18.424,1.066-31.424,1.066-40.37-4.078c-27.561-15.846-29.554-20.303-78.054-20.291L0.025,25z"/>
</svg>
