<?xml version="1.0" encoding="utf-8"?>
<!-- Generator: Adobe Illustrator 16.0.0, SVG Export Plug-In . SVG Version: 6.00 Build 0)  -->
<!DOCTYPE svg PUBLIC "-//W3C//DTD SVG 1.1//EN" "http://www.w3.org/Graphics/SVG/1.1/DTD/svg11.dtd">
<svg version="1.1" id="Layer_1" xmlns="http://www.w3.org/2000/svg" xmlns:xlink="http://www.w3.org/1999/xlink" x="0px" y="0px"
	 width="500px" height="500px" viewBox="0 0 500 500" enable-background="new 0 0 500 500" xml:space="preserve">
<path fill="#6D0303" d="M229.258,93.018c5.592,3.685,15.005,9.197,15.005,15.893v182.197c0,0.184-0.143,0.342-0.329,0.355
	s-0.353-0.117-0.381-0.301c-2.977-19.244-16.545-87.504-63.305-124.373c-54.805-43.211-77.993-67.453-85.369-87.477
	c-7.377-20.025-13.701-55.859-6.323-79.046L229.258,93.018z"/>
<path d="M193.886,199.344c0,0,35.836,41.746,39.926,95.291c0.38,4.973-1.415,6.52-4.101,8.494L87.816,392.812
	c0,0-11.882-68.312,13.413-102.039L193.886,199.344z"/>
<path fill="#6D0303" d="M271.323,92.507c-5.592,3.685-15.005,9.197-15.005,15.893v182.196c0,0.188,0.144,0.342,0.329,0.355
	c0.187,0.016,0.353-0.117,0.382-0.299c2.976-19.246,16.545-87.505,63.306-124.374c54.804-43.211,77.991-67.453,85.368-87.477
	c7.377-20.025,13.701-55.859,6.323-79.046L271.323,92.507z"/>
<path d="M306.696,198.833c0,0-35.837,41.746-39.927,95.29c-0.379,4.975,1.416,6.52,4.101,8.496l141.896,89.684
	c0,0,11.882-68.314-13.413-102.041L306.696,198.833z"/>
<g>
	<polygon stroke="#000000" stroke-width="2.2477" stroke-miterlimit="10" points="87.336,442.109 112.536,442.109 112.536,496.996 
		114.765,496.996 114.765,442.109 139.966,442.109 139.966,440.129 87.336,440.129 	"/>
	<polygon stroke="#000000" stroke-width="2.2477" stroke-miterlimit="10" points="183.08,471.062 156.594,440.129 153.765,440.129 
		182.051,473.137 182.051,496.996 184.107,496.996 184.107,473.137 212.394,440.129 209.737,440.129 	"/>
	<path stroke="#000000" stroke-width="2.2477" stroke-miterlimit="10" d="M258.167,440.129h-28.63v56.867h2.229v-25.652h25.456
		c6.572,0,11.843-1.352,15.816-4.057c3.97-2.699,5.958-6.568,5.958-11.598C278.997,445.316,272.053,440.129,258.167,440.129z
		 M271.796,465.59c-3.374,2.453-7.916,3.68-13.629,3.68h-26.4v-27.16h26.4c12.456,0,18.687,4.525,18.687,13.58
		C276.854,459.838,275.168,463.141,271.796,465.59z"/>
	<polygon stroke="#000000" stroke-width="2.2477" stroke-miterlimit="10" points="297.509,494.922 297.509,468.42 339.682,468.42 
		339.682,466.346 297.509,466.346 297.509,442.109 342.337,442.109 342.337,440.129 295.366,440.129 295.366,496.996 
		342.767,496.996 342.767,494.922 	"/>
</g>
<g>
	<path stroke="#000000" stroke-width="2.2849" stroke-miterlimit="10" d="M389.851,498.748c-5.493,0-9.847-0.971-13.061-2.914
		c-3.389-2.012-5.814-5.375-7.275-10.092h2.192c1.694,4.578,4.382,7.699,8.063,9.363c2.454,1.111,5.842,1.666,10.167,1.666
		c7.305,0,13.002-2.738,17.094-8.221c4.438-5.826,6.689-14.393,6.748-25.701c-4.908,10.268-12.477,15.4-22.701,15.4
		c-6.837,0-12.506-1.908-17.004-5.723c-4.501-3.814-6.75-8.809-6.75-14.984c0-5.896,2.396-10.855,7.188-14.879
		c4.616-3.814,10.139-5.723,16.566-5.723c4.382,0,8.473,0.971,12.271,2.914c3.271,1.664,5.873,3.779,7.802,6.346
		c3.096,4.162,4.645,9.713,4.645,16.648c0,0.973-0.03,2.014-0.088,3.121c-0.468,8.533-2.192,15.504-5.171,20.916
		C406.096,494.795,399.199,498.748,389.851,498.748z M391.078,438.918c-6.019,0-11.118,1.873-15.296,5.619
		c-4.179,3.746-6.268,8.152-6.268,13.213c0,5.066,2.089,9.418,6.268,13.061c4.178,3.641,9.277,5.463,15.296,5.463
		c5.844,0,11.045-2.186,15.603-6.557c4.207-3.953,6.28-8.012,6.223-12.174c-0.06-5.133-2.191-9.521-6.399-13.162
		C402.298,440.738,397.155,438.918,391.078,438.918z"/>
</g>
</svg>
