<?xml version="1.0" encoding="utf-8"?>
<!-- Generator: Adobe Illustrator 16.0.0, SVG Export Plug-In . SVG Version: 6.00 Build 0)  -->
<!DOCTYPE svg PUBLIC "-//W3C//DTD SVG 1.1//EN" "http://www.w3.org/Graphics/SVG/1.1/DTD/svg11.dtd">
<svg version="1.1" id="Layer_1" xmlns="http://www.w3.org/2000/svg" xmlns:xlink="http://www.w3.org/1999/xlink" x="0px" y="0px"
	 width="16px" height="16px" viewBox="0 0 16 16" enable-background="new 0 0 16 16" xml:space="preserve">
<path fill="#6D0303" d="M7.146,3.797c0.227,0.15,0.609,0.374,0.609,0.647v7.416c0,0.009-0.006,0.015-0.014,0.017
	c-0.008,0-0.014-0.006-0.016-0.015C7.605,11.078,7.055,8.3,5.159,6.8C2.935,5.041,1.995,4.053,1.696,3.239
	C1.396,2.423,1.14,0.964,1.438,0.02L7.146,3.797z"/>
<path d="M5.711,8.125c0,0,1.453,1.697,1.619,3.877c0.016,0.203-0.057,0.266-0.166,0.348L1.409,16c0,0-0.481-2.781,0.543-4.154
	L5.711,8.125z"/>
<path fill="#6D0303" d="M8.852,3.775C8.625,3.925,8.245,4.15,8.245,4.422v7.416c0,0.008,0.004,0.016,0.012,0.016
	c0.008,0,0.014-0.006,0.016-0.014c0.121-0.783,0.672-3.56,2.567-5.062c2.225-1.758,3.164-2.746,3.465-3.561
	C14.604,2.403,14.857,0.944,14.561,0L8.852,3.775z"/>
<path d="M10.287,8.103c0,0-1.453,1.7-1.619,3.879c-0.016,0.203,0.059,0.266,0.166,0.346l5.756,3.65c0,0,0.48-2.781-0.544-4.154
	L10.287,8.103z"/>
</svg>
