<?xml version="1.0" encoding="utf-8"?>
<!-- Generator: Adobe Illustrator 16.0.0, SVG Export Plug-In . SVG Version: 6.00 Build 0)  -->
<!DOCTYPE svg PUBLIC "-//W3C//DTD SVG 1.1//EN" "http://www.w3.org/Graphics/SVG/1.1/DTD/svg11.dtd">
<svg version="1.1" id="Layer_1" xmlns="http://www.w3.org/2000/svg" xmlns:xlink="http://www.w3.org/1999/xlink" x="0px" y="0px"
	 width="300px" height="750px" viewBox="0 0 300 750" enable-background="new 0 0 300 750" xml:space="preserve">
<path fill="#6D0303" d="M270.221,172.577c10.403,6.857,27.92,17.112,27.92,29.572v339c0,0.349-0.268,0.635-0.613,0.661
	c-0.348,0.029-0.655-0.216-0.71-0.555c-5.538-35.812-30.783-162.817-117.79-231.416C77.058,229.437,33.913,184.333,20.189,147.075
	C6.462,109.815-5.305,43.141,8.423,0L270.221,172.577z"/>
<path d="M204.403,370.411c0,0,66.682,77.671,74.29,177.302c0.705,9.256-2.635,12.127-7.629,15.805L7.047,730.388
	c0,0-22.107-127.11,24.956-189.863L204.403,370.411z"/>
</svg>
