<?xml version="1.0" encoding="utf-8"?>
<!-- Generator: Adobe Illustrator 16.0.0, SVG Export Plug-In . SVG Version: 6.00 Build 0)  -->
<!DOCTYPE svg PUBLIC "-//W3C//DTD SVG 1.1//EN" "http://www.w3.org/Graphics/SVG/1.1/DTD/svg11.dtd">
<svg version="1.1" id="Layer_1" xmlns="http://www.w3.org/2000/svg" xmlns:xlink="http://www.w3.org/1999/xlink" x="0px" y="0px"
	 width="420px" height="80px" viewBox="0 0 420 80" enable-background="new 0 0 420 80" xml:space="preserve">
<g>
	<polygon stroke="#000000" stroke-width="2.7702" stroke-miterlimit="10" points="7.625,8.192 38.684,8.192 38.684,75.837 
		41.43,75.837 41.43,8.192 72.489,8.192 72.489,5.75 7.625,5.75 	"/>
	<polygon stroke="#000000" stroke-width="2.7702" stroke-miterlimit="10" points="125.625,43.874 92.982,5.75 89.496,5.75 
		124.357,46.431 124.357,75.837 126.891,75.837 126.891,46.431 161.753,5.75 158.479,5.75 	"/>
	<path stroke="#000000" stroke-width="2.7702" stroke-miterlimit="10" d="M218.166,5.75h-35.284v70.086h2.746V44.222h31.375
		c8.101,0,14.595-1.666,19.493-5c4.893-3.327,7.341-8.094,7.341-14.294C243.837,12.144,235.28,5.75,218.166,5.75z M234.963,37.131
		c-4.157,3.021-9.757,4.534-16.797,4.534h-32.538V8.192h32.538c15.353,0,23.03,5.577,23.03,16.736
		C241.196,30.041,239.121,34.112,234.963,37.131z"/>
	<polygon stroke="#000000" stroke-width="2.7702" stroke-miterlimit="10" points="266.653,73.28 266.653,40.616 318.631,40.616 
		318.631,38.062 266.653,38.062 266.653,8.192 321.903,8.192 321.903,5.75 264.015,5.75 264.015,75.837 322.432,75.837 
		322.432,73.28 	"/>
</g>
<g>
	<path stroke="#000000" stroke-width="2.816" stroke-miterlimit="10" d="M380.46,77.995c-6.772,0-12.136-1.195-16.095-3.59
		c-4.178-2.48-7.166-6.625-8.967-12.439h2.7c2.089,5.645,5.401,9.49,9.938,11.541c3.024,1.369,7.201,2.055,12.532,2.055
		c9.002,0,16.023-3.377,21.067-10.135c5.47-7.182,8.243-17.738,8.314-31.674c-6.047,12.654-15.376,18.98-27.977,18.98
		c-8.428,0-15.412-2.352-20.956-7.053c-5.549-4.703-8.321-10.856-8.321-18.467c0-7.269,2.955-13.379,8.858-18.338
		c5.689-4.701,12.497-7.052,20.419-7.052c5.399,0,10.443,1.196,15.124,3.591c4.032,2.051,7.239,4.658,9.617,7.821
		c3.813,5.129,5.721,11.97,5.721,20.518c0,1.199-0.036,2.48-0.105,3.849c-0.578,10.515-2.705,19.104-6.374,25.774
		C400.482,73.122,391.983,77.995,380.46,77.995z M381.974,4.258c-7.417,0-13.704,2.308-18.849,6.925
		c-5.153,4.617-7.727,10.047-7.727,16.285c0,6.243,2.573,11.607,7.727,16.097c5.145,4.484,11.432,6.73,18.849,6.73
		c7.201,0,13.61-2.693,19.228-8.082c5.188-4.87,7.742-9.871,7.669-15c-0.071-6.327-2.7-11.735-7.887-16.222
		C395.802,6.502,389.462,4.258,381.974,4.258z"/>
</g>
</svg>
